HIERARCHY
ROOT Hips
{
	OFFSET -3.958830 18.904000 13.208200
	CHANNELS 6 Xposition Yposition Zposition Zrotation Yrotation Xrotation 
	JOINT LHipJoint
	{
		OFFSET 0.000000 0.000000 0.000000
		CHANNELS 3 Zrotation Yrotation Xrotation
		JOINT LeftUpLeg
		{
			OFFSET 1.800000 -1.400000 0.085000
			CHANNELS 3 Zrotation Yrotation Xrotation
			JOINT LeftLeg
			{
				OFFSET 2.215000 -6.000000 0.000000
				CHANNELS 3 Zrotation Yrotation Xrotation
				JOINT LeftFoot
				{
					OFFSET 2.500000 -6.900000 0.000000
					CHANNELS 3 Zrotation Yrotation Xrotation
					JOINT LeftToeBase
					{
						OFFSET 0.200000 -0.500000 1.950000
						CHANNELS 3 Zrotation Yrotation Xrotation
						End Site
						{
							OFFSET 0.000000 0.000000 0.000000
						}
					}
				}
			}
		}
	}
	JOINT RHipJoint
	{
		OFFSET 0.000000 0.000000 0.000000
		CHANNELS 3 Zrotation Yrotation Xrotation
		JOINT RightUpLeg
		{
			OFFSET -1.800000 -1.400000 0.085000
			CHANNELS 3 Zrotation Yrotation Xrotation
			JOINT RightLeg
			{
				OFFSET -2.215000 -6.000000 0.000000
				CHANNELS 3 Zrotation Yrotation Xrotation
				JOINT RightFoot
				{
					OFFSET -2.500000 -6.900000 0.000000
					CHANNELS 3 Zrotation Yrotation Xrotation
					JOINT RightToeBase
					{
						OFFSET -0.200000 -0.500000 1.950000
						CHANNELS 3 Zrotation Yrotation Xrotation
						End Site
						{
							OFFSET 0.000000 0.000000 0.000000
						}
					}
				}
			}
		}
	}
	JOINT LowerBack
	{
		OFFSET 0.000000 0.000000 0.000000
		CHANNELS 3 Zrotation Yrotation Xrotation
		JOINT Spine
		{
			OFFSET -0.087000 1.940000 -0.288900
			CHANNELS 3 Zrotation Yrotation Xrotation
			JOINT Spine1
			{
				OFFSET 0.000000 1.950000 0.060000
				CHANNELS 3 Zrotation Yrotation Xrotation
				JOINT Neck
				{
					OFFSET 0.000000 0.000000 0.000000
					CHANNELS 3 Zrotation Yrotation Xrotation
					JOINT Neck1
					{
						OFFSET 0.000000 1.600000 0.340000
						CHANNELS 3 Zrotation Yrotation Xrotation
						JOINT Head
						{
							OFFSET 0.000000 1.667000 -0.240000
							CHANNELS 3 Zrotation Yrotation Xrotation
							End Site
							{
								OFFSET 0.000000 0.000000 0.000000
							}
						}
					}
				}
				JOINT LeftShoulder
				{
					OFFSET 0.000000 0.000000 0.000000
					CHANNELS 3 Zrotation Yrotation Xrotation
					JOINT LeftArm
					{
						OFFSET 2.700000 1.550000 -0.730000
						CHANNELS 3 Zrotation Yrotation Xrotation
						JOINT LeftForeArm
						{
							OFFSET 5.450000 0.000000 0.000000
							CHANNELS 3 Zrotation Yrotation Xrotation
							JOINT LeftHand
							{
								OFFSET 3.450000 0.000000 0.000000
								CHANNELS 3 Zrotation Yrotation Xrotation
								JOINT LeftHandIndex1
								{
									OFFSET 0.750000 0.000000 0.000000
									CHANNELS 3 Zrotation Yrotation Xrotation
									End Site
									{
										OFFSET 0.000000 0.000000 0.000000
									}
								}
							}
						}
					}
				}
				JOINT RightShoulder
				{
					OFFSET 0.000000 0.000000 0.000000
					CHANNELS 3 Zrotation Yrotation Xrotation
					JOINT RightArm
					{
						OFFSET -2.700000 1.550000 -0.730000
						CHANNELS 3 Zrotation Yrotation Xrotation
						JOINT RightForeArm
						{
							OFFSET -5.450000 0.000000 0.000000
							CHANNELS 3 Zrotation Yrotation Xrotation
							JOINT RightHand
							{
								OFFSET -3.450000 0.000000 0.000000
								CHANNELS 3 Zrotation Yrotation Xrotation
								JOINT RightHandIndex1
								{
									OFFSET -0.750000 0.000000 0.000000
									CHANNELS 3 Zrotation Yrotation Xrotation
									End Site
									{
										OFFSET 0.000000 0.000000 0.000000
									}
								}
							}
						}
					}
				}
			}
		}
	}
}
MOTION
Frames: 6
Frame Time: 0.016667
-0.811680 15.671330 -0.896240 -3.011656 -16.849866 10.430561 -16.300788 9.044699 7.042472 30.248465 -3.876051 -53.103312 -46.602229 28.135129 33.406343 1.584504 12.853441 0.455243 0.351110 -0.277640 0.657740 18.222608 -5.072170 5.051499 -32.917730 5.758990 -52.939191 34.512460 -25.523225 42.361367 -1.630520 -10.335909 0.914043 -0.210630 0.174850 0.427220 -2.503594 -4.994798 -10.767438 12.332142 -1.252989 40.098742 10.270246 3.785592 -1.674131 -0.360011 -7.051325 -9.481343 -14.189980 7.262881 27.809255 -15.919050 10.574470 -7.624640 -15.777744 -0.787126 2.375712 -22.217358 10.365379 -6.140007 -34.341396 -42.547109 10.828579 -3.712349 3.399930 0.576220 0.190000 0.008650 0.110000 17.347620 8.320374 7.367953 41.651138 -10.030867 -15.619320 50.923326 78.337719 30.830249 2.027393 -2.072821 -0.157850 -0.025720 -0.107630 -0.350190 
-0.802730 15.681260 -0.890840 -2.970855 -16.417344 10.174222 -16.284635 9.094153 7.029420 29.786683 -4.091820 -53.159710 -45.951840 28.187297 34.080244 1.610659 12.860458 0.448847 0.371080 -0.259620 0.676260 18.222202 -5.134130 5.020338 -32.940464 5.834271 -52.280495 34.634505 -25.358212 42.052789 -1.628828 -10.269589 0.928424 -0.213920 0.145370 0.426040 -2.500889 -4.971317 -10.765843 12.617513 -1.407434 40.207161 10.329360 3.756534 -1.796526 -0.259079 -6.755017 -9.703978 -13.752915 7.402811 28.884508 -15.513560 10.692080 -7.560130 -15.704275 -1.563540 2.824888 -23.890582 10.486240 -6.637926 -34.505560 -41.382092 10.336599 -3.676294 3.397043 0.581150 0.165220 0.026420 0.112130 17.077055 9.047698 7.204269 42.620126 -8.684851 -16.470163 44.741976 77.872042 26.433153 1.993105 -2.102782 -0.138070 -0.045690 -0.129100 -0.349070 
-0.780590 15.708520 -0.873960 -2.792008 -16.113458 10.058622 -16.281062 9.265534 6.952280 28.471105 -4.451970 -53.046522 -44.270914 27.869114 34.978648 1.602191 12.791054 0.438850 0.390450 -0.235930 0.687920 18.193342 -5.203882 4.993245 -32.877498 6.154428 -51.675696 33.978954 -24.778156 41.968812 -1.606125 -10.139664 0.945340 -0.219880 0.104960 0.448160 -2.427103 -5.099826 -10.739056 12.724564 -1.257779 40.206989 11.121693 4.022238 -2.393761 -0.217933 -6.531761 -9.552840 -13.563229 7.595028 30.298196 -15.569060 10.752060 -7.941180 -16.336281 -1.824276 2.902673 -27.391691 9.350512 -7.010617 -33.456218 -37.752557 8.646984 -3.665698 3.371709 0.583900 0.140110 0.057360 0.103340 17.642819 9.478898 6.785301 42.585791 -6.796536 -16.960860 38.075360 78.000634 22.040111 1.976466 -2.107505 -0.097940 -0.082940 -0.136920 -0.343220 
-0.757240 15.761830 -0.861520 -2.450404 -16.346068 9.923386 -16.280985 9.503083 6.829103 26.739316 -4.622278 -52.499898 -42.109451 27.246002 35.616999 1.576397 12.599965 0.459127 0.437900 -0.179300 0.708000 18.145209 -5.336233 4.958436 -32.406426 6.902813 -51.151009 32.337345 -23.492586 41.995439 -1.558768 -9.868291 1.016029 -0.219750 0.048930 0.473290 -2.319876 -5.175059 -10.706979 12.202542 -0.420656 39.732852 12.318116 4.530424 -2.366845 -0.150165 -5.819839 -9.637685 -12.535303 7.690539 32.858663 -15.413680 10.991340 -8.290570 -16.782799 -2.712787 3.331333 -31.798891 8.478729 -7.694632 -32.035580 -34.424681 6.916350 -3.628407 3.356003 0.594690 0.104930 0.105360 0.114300 17.984249 10.449116 6.483304 43.250960 -4.419247 -17.894295 29.962160 78.561847 16.327324 1.955907 -2.092544 -0.041540 -0.129040 -0.169330 -0.333930 
-0.726450 15.844180 -0.840420 -2.563093 -16.737889 10.116278 -16.255867 9.736116 6.720716 25.197505 -4.501927 -51.855394 -39.729885 26.406649 36.011047 1.547874 12.323018 0.496305 0.493480 -0.106100 0.738980 18.111575 -5.566756 4.878209 -30.835065 8.051073 -50.654970 29.522734 -21.633362 42.219229 -1.472211 -9.429457 1.128118 -0.218350 -0.025770 0.498500 -2.267866 -5.077832 -10.657413 12.360079 0.353904 38.469388 13.321893 5.127151 -1.820146 0.049358 -5.076994 -10.016063 -11.458580 7.388389 35.991185 -15.317710 11.017700 -8.160940 -17.557604 -4.302333 3.913806 -37.397730 7.221186 -8.539322 -27.778582 -31.210993 4.635763 -3.583563 3.329306 0.591150 0.061350 0.163920 0.121980 18.382549 12.139255 6.569392 43.885761 -2.646699 -19.355832 20.988231 79.215810 9.465701 1.944059 -2.064599 0.033430 -0.190260 -0.215040 -0.317600 
-0.694290 15.940520 -0.812340 -2.418499 -16.927516 10.881598 -16.179846 9.881923 6.593389 23.164243 -4.738015 -51.745421 -36.558776 25.362769 36.807597 1.498593 12.031854 0.568126 0.493410 -0.091150 0.723580 18.124094 -5.890614 4.832823 -29.358866 8.740660 -50.463997 26.713588 -19.527408 41.589745 -1.314383 -8.855646 1.295616 -0.228730 -0.031190 0.505850 -2.347259 -4.686781 -10.581958 12.514907 0.971025 35.802516 14.113959 5.341361 -1.193293 -0.156410 -4.279334 -10.326632 -10.128960 6.917365 38.734748 -14.713790 10.934280 -5.825020 -18.542466 -5.787139 4.571678 -41.619065 6.634085 -9.024943 -26.341532 -28.592795 3.420836 -3.588639 3.311809 0.556180 0.064670 0.171170 0.134900 19.782406 13.349682 6.511248 43.800996 -1.297274 -20.360033 13.665766 79.771967 3.630004 1.934311 -2.033081 0.067770 -0.220470 -0.234700 -0.291010 
